# xmcd
#
# Track frame offsets:
#	150
#	18851
#	32078
#	45770
#	61346
#	75695
#	88160
#	104430
#	122937
#	138101
#	156585
#	171073
#	185545
#	199020
#	215225
#	229019
#	243844
#	262568
#	286803
#	300762
#	318283
#
# Disc length: 4435 seconds
#
# Revision: 0
# Processed by: cddbd v1.5.2PL0 Copyright (c) Steve Scherf et al.
# Submitted via: EZCDAudioConverter 3.0.7.1
#
DISCID=0e115115
DTITLE=Various Artist - Hyv‰t, pahat ja Rumat -Lauluja Texasista it‰‰n
DYEAR=2013
DGENRE=
TTITLE0=Bablo - Mˆkki
TTITLE1=Huojuva Lato - Rakkaus ja juuret
TTITLE2=Pate Mustaj‰rvi - Tuli polttaa (Ring Of Fire)
TTITLE3=Esa Eloranta - Is‰ oppi lent‰m‰‰n
TTITLE4=Johnny and The Dodgers - Kierr‰n keh‰‰ (Walking The Floor Over You)
TTITLE5=Edu Kettunen - Josefine
TTITLE6=Kari Kuuva - Juoni el‰m‰si sun
TTITLE7=Kari Tapio - Syd‰npuoli s‰‰t‰ vasten
TTITLE8=Oski and Los Scobes - Cafe Rˆˆperi
TTITLE9=Mikko Alatalo and Simo Silmu - Jippijai-Jou
TTITLE10=Markojuhani Rautavaara - Paratiisiin p‰‰se en
TTITLE11=Topi Sorsakoski and Kulkukoirat - Mieron tie
TTITLE12=Pekka Tiilikainen - Jos voisit olla
TTITLE13=Jani Jalkanen ja H‰nen Orkesterinsa - Koira, kitara ja vanha laukku
TTITLE14=L‰nnentie - Holtiton mies (Honky Tonk Man)
TTITLE15=Jukka Kuoppam‰ki - V‰‰rinpeluri
TTITLE16=Hank Nero - Kes‰ viimeinen
TTITLE17=Olli Haavisto and J. Karjalainen - Keltaruusut (Yellow Roses)
TTITLE18=Tommi Viksten - P‰iv‰t murheen (Hard Times)
TTITLE19=Matti Esko - Oman el‰m‰ni cowboy
TTITLE20=Vanha Is‰nt‰ - Onkimiehen Blues
EXTD=
EXTT0=
EXTT1=
EXTT2=
EXTT3=
EXTT4=
EXTT5=
EXTT6=
EXTT7=
EXTT8=
EXTT9=
EXTT10=
EXTT11=
EXTT12=
EXTT13=
EXTT14=
EXTT15=
EXTT16=
EXTT17=
EXTT18=
EXTT19=
EXTT20=
PLAYORDER=
